<?xml version="1.0" encoding="utf-8"?>
<!-- Generator: Adobe Illustrator 22.1.0, SVG Export Plug-In . SVG Version: 6.00 Build 0)  -->
<svg version="1.1" id="Layer_1" xmlns="http://www.w3.org/2000/svg" xmlns:xlink="http://www.w3.org/1999/xlink" x="0px" y="0px"
	 viewBox="0 0 1024 1024" style="enable-background:new 0 0 1024 1024;" xml:space="preserve">
<g>
	<path fill="#fff" d="M321.7,689.9h-22.2v-19.7h67.3v19.7h-22.3v78.7h-22.8V689.9z"/>
	<path fill="#fff" d="M429.2,688.5v22.3h37.2v17.8h-37.2v21.6h37.2v18.3h-60v-98.4h60v18.3H429.2z"/>
	<path fill="#fff" d="M609.5,733.3c-3.8,20.8-21.6,37.8-49.2,37.8c-32.9,0-52.7-24.2-52.7-51.7c0-27,18.8-51.7,52.4-51.7
		c28.8,0,46.6,18.1,49.3,40.7h-23.7c-2.1-11.5-10.8-20.2-25.3-20.2c-18.8,0-29.5,14.9-29.5,31.2c0,17.3,11.9,31.2,29.8,31.2
		c13.2,0,21.9-7.6,24.7-17.3H609.5z"/>
	<path fill="#fff" d="M708.1,729.5h-34v39.1h-22.8v-98.4h22.8V710h34v-39.8h22.6v98.4h-22.6V729.5z"/>
</g>
<path fill="#fff" d="M648.7,218.5c-61.7,0-116.8,28.4-152.9,72.8c-3.4,4.2-6.6,8.5-9.6,12.9l44.8,63.4c3.4-3.5,7.2-7.3,11.5-11.3
	c12.7-11.8,29.1-25,47.8-35.2c17.4-10.8,37.4-16.6,58.4-16.6c29.6,0,57.5,11.5,78.5,32.5c21,21,32.5,48.8,32.5,78.5
	c0,29.6-11.5,57.5-32.5,78.5c-21,21-48.8,32.5-78.5,32.5s-57.5-11.5-78.5-32.5c-0.1-0.1-0.1-0.1-0.2-0.2c-4.5-4.5-8.6-9.4-12.2-14.5
	l-0.1,0.1L392.5,225.5l-57.9,89l-190.1,292h100l33.4-48.8h179.9l-45.5-77.3h-81.6l57.6-84.3l4.2-6.2l94.9,138.9l0.1,0
	c35.7,50.6,94.5,83.6,161.1,83.6c108.8,0,197-88.2,197-197S757.4,218.5,648.7,218.5z"/>
</svg>
